<svg width="32" height="32" viewBox="0 0 32 32" fill="none" xmlns="http://www.w3.org/2000/svg">
<path d="M25.6 0H6.4C2.88 0 0 2.88 0 6.4V19.2C0 22.72 2.88 25.6 6.4 25.6H10.56L16.48 31.52C16.8 31.84 17.12 32 17.6 32C17.76 32 18.08 32 18.24 31.84C18.88 31.52 19.2 31.04 19.2 30.4V25.6H25.6C29.12 25.6 32 22.72 32 19.2V6.4C32 2.88 29.12 0 25.6 0ZM28.8 19.2C28.8 20.96 27.36 22.4 25.6 22.4H17.6C16.64 22.4 16 23.04 16 24V26.56L12.32 22.88C12 22.56 11.68 22.4 11.2 22.4H6.4C4.64 22.4 3.2 20.96 3.2 19.2V6.4C3.2 4.64 4.64 3.2 6.4 3.2H25.6C27.36 3.2 28.8 4.64 28.8 6.4V19.2Z" fill="white"/>
<path d="M10.4 11.1992C11.7255 11.1992 12.8 10.1247 12.8 8.79917C12.8 7.47369 11.7255 6.39917 10.4 6.39917C9.07452 6.39917 8 7.47369 8 8.79917C8 10.1247 9.07452 11.1992 10.4 11.1992Z" fill="white"/>
<path d="M21.6012 11.1992C22.9267 11.1992 24.0012 10.1247 24.0012 8.79917C24.0012 7.47369 22.9267 6.39917 21.6012 6.39917C20.2757 6.39917 19.2012 7.47369 19.2012 8.79917C19.2012 10.1247 20.2757 11.1992 21.6012 11.1992Z" fill="white"/>
<path d="M19.5207 14.8792C17.6007 16.7992 14.4007 16.7992 12.4807 14.8792C11.8407 14.2392 10.8807 14.2392 10.2407 14.8792C9.60074 15.5192 9.60074 16.4792 10.2407 17.1192C11.8407 18.7192 13.9207 19.5192 16.0007 19.5192C18.0807 19.5192 20.1607 18.7192 21.7607 17.1192C22.4007 16.4792 22.4007 15.5192 21.7607 14.8792C21.1207 14.2392 20.1607 14.2392 19.5207 14.8792Z" fill="white"/>
</svg>
